<svg width="28" height="28" xmlns="http://www.w3.org/2000/svg" fill="none">
 <g>
  <title>Layer 1</title>
  <path d="m6.75,3c-2.07107,0 -3.75,1.67893 -3.75,3.75l0,14.5c0,2.0711 1.67893,3.75 3.75,3.75l14.5,0c2.0711,0 3.75,-1.6789 3.75,-3.75l0,-14.5c0,-2.07107 -1.6789,-3.75 -3.75,-3.75l-14.5,0zm-2.25,3.75c0,-1.24264 1.00736,-2.25 2.25,-2.25l6.25,0l0,1.75c0,1.51878 1.2312,2.75 2.75,2.75l7.75,0l0,12.25c0,1.2426 -1.0074,2.25 -2.25,2.25l-14.5,0c-1.24264,0 -2.25,-1.0074 -2.25,-2.25l0,-14.5zm19,0.75l-7.75,0c-0.6904,0 -1.25,-0.55964 -1.25,-1.25l0,-1.75l6.75,0c1.2426,0 2.25,1.00736 2.25,2.25l0,0.75z" fill="#212121" id="svg_1"/>
  <text fill="#000000" stroke="#000" x="10.73671" y="24.51164" id="svg_2" font-size="12" font-family="'Noto Sans Display'" text-anchor="start" xml:space="preserve" font-weight="normal" stroke-width="0">++</text>
 </g>

</svg>